<mxfile host="app.diagrams.net" modified="2024-06-05T10:01:58.722Z" agent="Mozilla/5.0 (Windows NT 10.0; Win64; x64) AppleWebKit/537.36 (KHTML, like Gecko) Chrome/122.0.0.0 YaBrowser/24.4.0.0 Safari/537.36" etag="32hudQlVt4H2630JwHSl" version="24.4.13" type="device">
  <diagram id="prtHgNgQTEPvFCAcTncT" name="Page-1">
    <mxGraphModel dx="1173" dy="671" grid="1" gridSize="10" guides="1" tooltips="1" connect="1" arrows="1" fold="1" page="1" pageScale="1" pageWidth="827" pageHeight="1169" math="0" shadow="0">
      <root>
        <mxCell id="0" />
        <mxCell id="1" parent="0" />
        <mxCell id="Ytw313Q3KgXByy3JhEgU-6" style="edgeStyle=orthogonalEdgeStyle;rounded=0;orthogonalLoop=1;jettySize=auto;html=1;exitX=1;exitY=0.5;exitDx=0;exitDy=0;entryX=0;entryY=0.5;entryDx=0;entryDy=0;" edge="1" parent="1" source="Ytw313Q3KgXByy3JhEgU-1" target="Ytw313Q3KgXByy3JhEgU-5">
          <mxGeometry relative="1" as="geometry" />
        </mxCell>
        <mxCell id="Ytw313Q3KgXByy3JhEgU-1" value="Not Finished" style="rounded=1;whiteSpace=wrap;html=1;" vertex="1" parent="1">
          <mxGeometry x="120" y="200" width="120" height="60" as="geometry" />
        </mxCell>
        <mxCell id="Ytw313Q3KgXByy3JhEgU-3" style="edgeStyle=orthogonalEdgeStyle;rounded=0;orthogonalLoop=1;jettySize=auto;html=1;exitX=0.5;exitY=1;exitDx=0;exitDy=0;entryX=0.5;entryY=0;entryDx=0;entryDy=0;" edge="1" parent="1" source="Ytw313Q3KgXByy3JhEgU-2" target="Ytw313Q3KgXByy3JhEgU-1">
          <mxGeometry relative="1" as="geometry" />
        </mxCell>
        <mxCell id="Ytw313Q3KgXByy3JhEgU-2" value="" style="ellipse;whiteSpace=wrap;html=1;aspect=fixed;" vertex="1" parent="1">
          <mxGeometry x="160" y="80" width="40" height="40" as="geometry" />
        </mxCell>
        <mxCell id="Ytw313Q3KgXByy3JhEgU-4" value="Begin" style="text;html=1;align=center;verticalAlign=middle;whiteSpace=wrap;rounded=0;" vertex="1" parent="1">
          <mxGeometry x="120" y="140" width="60" height="30" as="geometry" />
        </mxCell>
        <mxCell id="Ytw313Q3KgXByy3JhEgU-8" style="edgeStyle=orthogonalEdgeStyle;rounded=0;orthogonalLoop=1;jettySize=auto;html=1;exitX=0.5;exitY=0;exitDx=0;exitDy=0;entryX=0.75;entryY=0;entryDx=0;entryDy=0;" edge="1" parent="1" source="Ytw313Q3KgXByy3JhEgU-5" target="Ytw313Q3KgXByy3JhEgU-1">
          <mxGeometry relative="1" as="geometry" />
        </mxCell>
        <mxCell id="Ytw313Q3KgXByy3JhEgU-11" style="edgeStyle=orthogonalEdgeStyle;rounded=0;orthogonalLoop=1;jettySize=auto;html=1;exitX=1;exitY=0.5;exitDx=0;exitDy=0;entryX=0;entryY=0.5;entryDx=0;entryDy=0;" edge="1" parent="1" source="Ytw313Q3KgXByy3JhEgU-5" target="Ytw313Q3KgXByy3JhEgU-10">
          <mxGeometry relative="1" as="geometry" />
        </mxCell>
        <mxCell id="Ytw313Q3KgXByy3JhEgU-5" value="Finished" style="rounded=1;whiteSpace=wrap;html=1;" vertex="1" parent="1">
          <mxGeometry x="360" y="200" width="120" height="60" as="geometry" />
        </mxCell>
        <mxCell id="Ytw313Q3KgXByy3JhEgU-7" value="PressConfirmButton" style="text;html=1;align=center;verticalAlign=middle;whiteSpace=wrap;rounded=0;" vertex="1" parent="1">
          <mxGeometry x="270" y="200" width="60" height="30" as="geometry" />
        </mxCell>
        <mxCell id="Ytw313Q3KgXByy3JhEgU-9" value="StartAdding" style="text;html=1;align=center;verticalAlign=middle;whiteSpace=wrap;rounded=0;" vertex="1" parent="1">
          <mxGeometry x="280" y="150" width="60" height="30" as="geometry" />
        </mxCell>
        <mxCell id="Ytw313Q3KgXByy3JhEgU-13" style="edgeStyle=orthogonalEdgeStyle;rounded=0;orthogonalLoop=1;jettySize=auto;html=1;exitX=0.5;exitY=0;exitDx=0;exitDy=0;entryX=0.75;entryY=0;entryDx=0;entryDy=0;" edge="1" parent="1" source="Ytw313Q3KgXByy3JhEgU-10" target="Ytw313Q3KgXByy3JhEgU-5">
          <mxGeometry relative="1" as="geometry" />
        </mxCell>
        <mxCell id="Ytw313Q3KgXByy3JhEgU-16" style="edgeStyle=orthogonalEdgeStyle;rounded=0;orthogonalLoop=1;jettySize=auto;html=1;exitX=0.5;exitY=1;exitDx=0;exitDy=0;entryX=0.5;entryY=0;entryDx=0;entryDy=0;" edge="1" parent="1" source="Ytw313Q3KgXByy3JhEgU-10" target="Ytw313Q3KgXByy3JhEgU-15">
          <mxGeometry relative="1" as="geometry" />
        </mxCell>
        <mxCell id="Ytw313Q3KgXByy3JhEgU-10" value="Payed" style="rounded=1;whiteSpace=wrap;html=1;" vertex="1" parent="1">
          <mxGeometry x="600" y="200" width="120" height="60" as="geometry" />
        </mxCell>
        <mxCell id="Ytw313Q3KgXByy3JhEgU-12" value="PayforOrder" style="text;html=1;align=center;verticalAlign=middle;whiteSpace=wrap;rounded=0;" vertex="1" parent="1">
          <mxGeometry x="510" y="200" width="60" height="30" as="geometry" />
        </mxCell>
        <mxCell id="Ytw313Q3KgXByy3JhEgU-14" value="CancelPayment" style="text;html=1;align=center;verticalAlign=middle;whiteSpace=wrap;rounded=0;" vertex="1" parent="1">
          <mxGeometry x="530" y="150" width="60" height="30" as="geometry" />
        </mxCell>
        <mxCell id="Ytw313Q3KgXByy3JhEgU-15" value="Delivered" style="rounded=1;whiteSpace=wrap;html=1;" vertex="1" parent="1">
          <mxGeometry x="600" y="320" width="120" height="60" as="geometry" />
        </mxCell>
        <mxCell id="Ytw313Q3KgXByy3JhEgU-17" value="DeliverOrder" style="text;html=1;align=center;verticalAlign=middle;whiteSpace=wrap;rounded=0;" vertex="1" parent="1">
          <mxGeometry x="590" y="280" width="60" height="30" as="geometry" />
        </mxCell>
      </root>
    </mxGraphModel>
  </diagram>
</mxfile>
